<svg width="544" height="146" viewBox="0 0 544 146" fill="none" xmlns="http://www.w3.org/2000/svg">
<path d="M36.3921 38.002H16.5255C15.6252 38.002 14.7649 38.3648 14.1247 39.01L0.780269 52.4568C-0.24007 53.485 -0.24007 55.1784 0.780269 56.2066L7.70257 63.182C8.72291 64.2102 10.4035 64.2102 11.4238 63.182L15.1851 59.3919V73.5444C15.1851 74.8548 16.2454 75.9031 17.5258 75.9031H51.137C52.0373 75.9031 52.7776 75.1572 52.7776 74.25V40.4413C52.7776 39.0906 51.6972 38.002 50.3568 38.002H36.3921Z" fill="#FFCB01"/>
<path d="M69.323 35.119H89.2696C90.0099 35.119 90.6101 34.5142 90.6101 33.7683V8.66884C90.6101 7.37859 89.5697 6.3101 88.2693 6.3101H76.8655C75.5851 6.3101 74.5247 7.35843 74.5247 8.66884V18.9304L56.7988 1.04829C55.4184 -0.342758 53.1776 -0.342758 51.7972 1.04829L18.8662 34.2319C18.5461 34.5545 18.7662 35.119 19.2263 35.119H39.253H69.323Z" fill="#FFCB01"/>
<path d="M107.816 52.4568L94.4714 39.01C93.8312 38.3648 92.9709 38.002 92.0706 38.002H72.204H58.1593C56.8189 38.002 55.7385 39.0906 55.7385 40.4413V74.25C55.7385 75.1572 56.4788 75.9031 57.3791 75.9031H90.9903C92.2907 75.9031 93.3311 74.8346 93.3311 73.5444V59.3113L97.1723 63.182C98.1927 64.2102 99.8732 64.2102 100.894 63.182L107.816 56.2066C108.856 55.1784 108.856 53.485 107.816 52.4568Z" fill="#FFCB01"/>
<path d="M92.9509 128.985H54.8382C51.8372 128.985 49.3964 126.525 49.3964 123.501V92.9383C49.3964 92.5351 49.7365 92.1924 50.1366 92.1924H58.4794C58.8795 92.1924 59.2196 92.5351 59.2196 92.9383V118.683C59.2196 118.905 59.3997 119.106 59.6398 119.106H91.2903C112.517 119.106 129.883 99.3493 129.883 75.661C129.883 52.5172 116.399 36.1068 95.9519 35.2802C95.1316 35.2399 94.4914 34.5746 94.4914 33.748V25.3009C94.4914 24.434 95.1916 23.7486 96.0519 23.7687C112.717 24.0913 125.382 29.1112 134.105 38.4252C143.268 48.2029 148.689 59.7547 148.689 75.661C148.689 91.5674 142.447 104.127 133.284 113.844C124.341 123.34 108.356 128.985 92.9509 128.985Z" fill="#111112"/>
<path d="M47.5557 88.241H51.6171C52.2573 88.241 52.7774 87.7168 52.7774 87.0717V79.9149C52.7774 79.0076 52.0372 78.2617 51.1369 78.2617H17.5257C16.2253 78.2617 15.1849 79.3302 15.1849 80.6205V112.978C15.1849 114.288 16.2453 115.336 17.5257 115.336H42.7541C44.0545 115.336 45.0949 114.268 45.0949 112.978V90.7409C45.0949 89.37 46.1953 88.241 47.5557 88.241Z" fill="#FFCB01"/>
<path d="M55.7385 79.935V87.0919C55.7385 87.737 56.2587 88.2612 56.8989 88.2612H61.0803C62.4408 88.2612 63.5411 89.37 63.5411 90.7409V113.018C63.5411 114.328 64.6015 115.377 65.8819 115.377H90.9703C92.2707 115.377 93.311 114.308 93.311 113.018V80.6608C93.311 79.3504 92.2507 78.302 90.9703 78.302H57.3591C56.4588 78.2819 55.7385 79.0278 55.7385 79.935Z" fill="#FFCB01"/>
<path d="M93.331 112.998V93.5432L85.8685 86.0234L70.3833 87.3742L78.6661 95.7205L68.7428 97.293L86.6888 115.377H90.9702C92.2906 115.377 93.331 114.308 93.331 112.998Z" fill="#F4990A"/>
<path d="M85.2083 85.7412H71.1036C70.5834 85.7412 70.1633 86.1646 70.1633 86.6887C70.1633 87.2129 70.5834 87.6363 71.1036 87.6363H77.2056V89.6321H77.1256C76.4854 89.6321 75.9852 90.1562 75.9852 90.7812V91.3659H69.183C68.9029 91.3659 68.6628 91.5876 68.6628 91.89V96.9503C68.6628 97.2325 68.8828 97.4744 69.183 97.4744H77.5257C79.9065 97.4744 81.8472 99.43 81.8472 101.829V102.918C81.8472 103.18 82.0672 103.402 82.3273 103.402H87.449C87.7091 103.402 87.9092 103.2 87.9292 102.938V101.849C87.9292 97.0482 84.7197 92.9968 80.3467 91.7565V90.7812C80.3467 90.1361 79.8265 89.6321 79.2063 89.6321H79.1063V87.6363H85.2083C85.7285 87.6363 86.1486 87.2129 86.1486 86.6887C86.1486 86.1847 85.7285 85.7412 85.2083 85.7412Z" fill="#111112"/>
<path d="M84.8882 108.139C85.6084 108.139 86.1886 107.555 86.1886 106.829C86.1886 105.478 84.8882 104.329 84.8882 104.329C84.8882 104.329 83.5877 105.458 83.5877 106.829C83.5877 107.555 84.1679 108.139 84.8882 108.139Z" fill="#111112"/>
<path d="M91.1904 75.903C92.2307 75.903 93.131 75.2176 93.4311 74.2499L89.7699 75.903H91.1904Z" fill="#F4990A"/>
<path d="M65.8819 57.9403C65.5218 57.9403 65.2217 58.2427 65.2217 58.6056V65.964C65.2217 66.1455 65.3017 66.3269 65.4217 66.4479L74.8249 75.9231H85.2083L67.3824 57.9605H65.8819V57.9403Z" fill="#F4990A"/>
<path d="M84.4281 47.7191C84.268 47.5578 84.0479 47.4772 83.8279 47.4772H65.8819C65.5218 47.4772 65.2217 47.7796 65.2217 48.1425V55.5009C65.2217 55.6823 65.3017 55.8638 65.4217 55.9848L67.3824 57.9604L85.2083 75.9231H89.7698L93.4311 74.27C93.5111 74.0482 93.5511 73.8063 93.5511 73.5442V59.3112L97.3924 63.1819C98.1926 63.9883 99.353 64.1698 100.333 63.7262L84.4281 47.7191Z" fill="#F4990A"/>
<path d="M65.7018 47.457H72.9843C73.3444 47.457 73.6645 47.7796 73.6645 48.1425V55.4808C73.6645 55.8638 73.3644 56.1662 72.9843 56.1662H65.7018C65.3217 56.1662 65.0216 55.8638 65.0216 55.4808V48.1425C65.0216 47.7594 65.3217 47.457 65.7018 47.457Z" fill="#111112"/>
<path d="M76.4054 47.457H83.6878C84.048 47.457 84.3681 47.7796 84.3681 48.1425V55.4808C84.3681 55.8638 84.068 56.1662 83.6878 56.1662H76.4054C76.0253 56.1662 75.7252 55.8638 75.7252 55.4808V48.1425C75.7252 47.7594 76.0253 47.457 76.4054 47.457Z" fill="#111112"/>
<path d="M72.9843 57.9403H65.7018C65.3217 57.9403 65.0216 58.2427 65.0216 58.6258V65.9641C65.0216 66.3471 65.3217 66.6495 65.7018 66.6495H72.9843C73.3644 66.6495 73.6645 66.3471 73.6645 65.9641V58.6258C73.6645 58.2427 73.3444 57.9403 72.9843 57.9403Z" fill="#111112"/>
<path d="M76.4054 57.9403H83.6878C84.048 57.9403 84.3681 58.2427 84.3681 58.6258V65.9641C84.3681 66.3471 84.068 66.6495 83.6878 66.6495H76.4054C76.0253 66.6495 75.7252 66.3471 75.7252 65.9641V58.6258C75.7252 58.2427 76.0253 57.9403 76.4054 57.9403Z" fill="#111112"/>
<path d="M45.0949 112.998V97.8777L37.2923 90.0152L35.7518 90.1764L36.352 89.5716L33.251 86.4468L31.6704 87.8177L34.1713 90.3377L33.7911 89.9547L33.331 90.4184L30.2299 90.7611L31.4303 89.5515L28.3293 86.4266L26.7488 87.7975L29.7498 90.8216L22.7675 91.6078L27.469 96.3455L24.7881 99.0469L31.2503 105.559L29.3096 107.514L37.0922 115.357H42.7541C44.0546 115.377 45.0949 114.308 45.0949 112.998Z" fill="#F4990A"/>
<path d="M36.4138 91.9707H23.5695C22.9293 91.9707 22.4091 91.4465 22.4291 90.8014C22.4291 90.1563 22.9493 89.6321 23.5895 89.6321H26.3904V87.3338C26.3904 86.6887 26.9106 86.1646 27.5508 86.1646C28.191 86.1646 28.7112 86.6887 28.7112 87.3338V89.6321H31.2921V87.3338C31.2921 86.6887 31.8122 86.1646 32.4524 86.1646C33.0927 86.1646 33.6128 86.6887 33.6128 87.3338V89.6321H36.4138C37.054 89.6321 37.5742 90.1563 37.5742 90.8014C37.5742 91.4465 37.054 91.9707 36.4138 91.9707Z" fill="#111112"/>
<path d="M22.8076 93.5432H37.1723C37.3924 93.5432 37.5725 93.7246 37.5525 93.9464C37.3724 97.5752 34.6515 100.539 31.1503 101.083V106.567C31.1503 107.212 30.6302 107.736 29.9899 107.736C29.3497 107.736 28.8296 107.212 28.8296 106.567V101.083C25.3284 100.539 22.6075 97.5752 22.4274 93.9464C22.4074 93.7246 22.5875 93.5432 22.8076 93.5432Z" fill="#111112"/>
<path d="M40.6735 47.8401V51.106L25.4284 53.5051L29.3097 57.4162C29.4097 57.4162 29.5298 57.4162 29.6298 57.4162C30.37 57.4766 31.0903 57.6178 31.8105 57.6783C32.4907 57.7387 32.4907 58.8072 31.8105 58.7467C31.5904 58.7266 31.3904 58.7064 31.1903 58.6661C31.1103 58.7669 30.9702 58.8475 30.8102 58.8677C30.7902 58.8677 30.7902 58.8677 30.7702 58.8677L31.2503 59.3515L24.5681 66.3874L33.9912 75.8829H51.1369C52.0372 75.8829 52.7775 75.137 52.7775 74.2297V60.0168L40.6735 47.8401Z" fill="#F4990A"/>
<path d="M40.9936 50.3399H42.174C42.9343 50.3399 43.5545 50.9649 43.5145 51.7512V53.7268C43.5145 54.251 43.2344 54.7147 42.7742 54.9566L39.5732 56.6299C39.3931 56.7307 39.2731 56.9122 39.2731 57.1339V58.5451H42.074C42.3541 58.5451 42.5942 58.8072 42.5942 59.1298C42.5942 59.4523 42.3741 59.7144 42.074 59.7144H41.6138L40.9736 61.3676V65.077C40.9736 66.3673 40.0133 67.4156 38.8329 67.4156C37.6525 67.4156 36.6922 66.3673 36.6922 65.077V61.3676L36.052 59.7144H35.5918C35.3117 59.7144 35.0717 59.4523 35.0717 59.1298C35.0717 58.8072 35.2917 58.5451 35.5918 58.5451H38.3928V57.1339C38.3928 56.5694 38.7129 56.0856 39.193 55.8235L42.3941 54.1502C42.5542 54.0494 42.6542 53.8881 42.6542 53.7067V51.731C42.6542 51.4689 42.4341 51.2471 42.174 51.2471H40.9936V52.356C40.9936 53.3438 40.1934 54.1301 39.2331 54.1301H26.4288C25.4485 54.1301 24.6682 53.3236 24.6682 52.356V49.2311C24.6682 48.2433 25.4685 47.457 26.4288 47.457H39.2331C40.2134 47.457 40.9936 48.2634 40.9936 49.2311V50.3399Z" fill="#111112"/>
<path fill-rule="evenodd" clip-rule="evenodd" d="M24.208 58.2629C24.208 57.6379 26.0886 57.1138 28.4094 57.1138C30.7102 57.1138 32.5708 57.6178 32.6108 58.2226V66.206C32.6108 66.831 30.7302 67.3551 28.4094 67.3551C26.0886 67.3551 24.208 66.8511 24.208 66.206V58.2629ZM24.9483 58.2629C25.3884 58.5048 26.5888 58.8274 28.4094 58.8274C30.25 58.8274 31.4504 58.5048 31.8706 58.2629C31.4304 58.021 30.23 57.6984 28.4094 57.6984C26.5888 57.6984 25.3884 58.021 24.9483 58.2629Z" fill="#111112"/>
<path d="M69.3231 35.119H83.0676L59.1997 11.0477L52.9376 10.4026L49.0163 13.8097L41.9539 29.7967L38.1127 30.6434L42.5541 35.119H69.3231Z" fill="#F4990A"/>
<path d="M51.097 10.5235C52.2974 9.75745 53.6578 9.35425 55.0583 9.35425C58.2794 9.35425 60.9002 11.9952 60.9002 15.241V17.7409C60.9002 19.3335 59.5998 20.644 58.0193 20.644H57.4791C57.4591 21.7726 57.4591 23.1431 57.4591 24.5136C57.4591 24.8362 57.139 25.0994 56.8189 25.0187C56.5188 24.9381 56.1987 24.9179 55.8786 24.9179C53.9179 24.9784 52.3374 26.5711 52.2774 28.5467C52.2574 29.2725 52.4374 29.9378 52.7575 30.5023C52.8776 30.7039 52.7375 30.966 52.4974 30.966H49.1363C48.4361 30.966 47.8959 30.3208 48.0159 29.6152L48.9963 23.8897C49.5965 20.4827 52.5174 17.9828 55.9586 17.9828H56.2987C56.9189 17.9828 57.4191 18.4465 57.4791 19.0311H58.0193C58.7195 19.0311 59.2997 18.4667 59.2997 17.7409V15.2612C59.2997 12.8823 57.3791 10.9671 55.0383 10.9671C52.8175 10.9671 50.7569 12.2775 49.8165 14.3137L49.4364 15.2007L50.0366 15.5031C50.4367 15.6845 50.5968 16.1684 50.3967 16.5716C50.2567 16.8538 49.9766 17.0151 49.6765 17.0151C49.5565 17.0151 49.4364 16.995 49.3164 16.9345L48.7562 16.6522L44.2547 26.3694L44.8949 26.692C45.295 26.8735 45.4551 27.3573 45.255 27.7605C45.115 28.0427 44.8349 28.204 44.5348 28.204C44.4147 28.204 44.2947 28.1839 44.1747 28.1234L43.5745 27.821L42.9142 29.2322H43.1143C43.5544 29.2322 43.9146 29.5951 43.9146 30.0386C43.9146 30.4821 43.5544 30.845 43.1143 30.845H38.6528C38.2127 30.845 37.8525 30.4821 37.8525 30.0386C37.8525 29.5951 38.2127 29.2322 38.6528 29.2322H41.1737L42.154 27.0952L41.4938 26.7727C41.0936 26.5912 40.9336 26.1074 41.1336 25.7042C41.3137 25.301 41.7939 25.1397 42.194 25.3413L42.8142 25.6638L47.3157 15.9668L46.6155 15.6241C46.2153 15.4426 46.0753 14.9588 46.2553 14.5556C46.4354 14.1524 46.9156 13.9911 47.3157 14.1927L47.9759 14.5153L48.3761 13.6484C48.9763 12.3581 49.9166 11.2896 51.097 10.5235Z" fill="#111112"/>
<path fill-rule="evenodd" clip-rule="evenodd" d="M53.0976 28.6274C53.0976 26.9944 54.398 25.684 56.0186 25.684C57.6191 25.684 58.9196 27.0146 58.9396 28.6274C58.9396 30.2603 57.6391 31.5708 56.0186 31.5708C54.398 31.5708 53.0976 30.2603 53.0976 28.6274ZM54.7782 28.6274C54.7782 29.3128 55.3384 29.8773 56.0186 29.8773C56.6988 29.8773 57.259 29.3128 57.259 28.6274C57.259 27.9419 56.6988 27.3774 56.0186 27.3774C55.3384 27.3774 54.7782 27.9419 54.7782 28.6274Z" fill="#111112"/>
<path d="M174.824 129.511C169.957 129.511 165.576 128.509 161.683 126.505C157.846 124.444 154.84 121.609 152.664 118.002C150.488 114.395 149.4 110.302 149.4 105.721C149.4 101.141 150.488 97.0471 152.664 93.44C154.84 89.833 157.846 87.0275 161.683 85.0236C165.576 82.9624 169.957 81.9318 174.824 81.9318C179.692 81.9318 184.044 82.9624 187.88 85.0236C191.717 87.0275 194.723 89.833 196.899 93.44C199.075 97.0471 200.163 101.141 200.163 105.721C200.163 110.302 199.075 114.395 196.899 118.002C194.723 121.609 191.717 124.444 187.88 126.505C184.044 128.509 179.692 129.511 174.824 129.511ZM174.824 118.518C178.26 118.518 181.066 117.373 183.242 115.082C185.475 112.735 186.592 109.615 186.592 105.721C186.592 101.828 185.475 98.7361 183.242 96.4459C181.066 94.0985 178.26 92.9247 174.824 92.9247C171.389 92.9247 168.554 94.0985 166.321 96.4459C164.088 98.7361 162.971 101.828 162.971 105.721C162.971 109.615 164.088 112.735 166.321 115.082C168.554 117.373 171.389 118.518 174.824 118.518Z" fill="#111112"/>
<path d="M234.375 85.7965C238.784 85.7965 242.65 86.7126 245.971 88.5447C249.292 90.3196 251.84 92.8389 253.615 96.1024C255.448 99.3659 256.364 103.145 256.364 107.439C256.364 111.847 255.276 115.769 253.1 119.205C250.981 122.583 248.004 125.217 244.167 127.106C240.33 128.938 235.978 129.854 231.111 129.854C223.037 129.854 216.681 127.278 212.042 122.125C207.461 116.915 205.171 109.3 205.171 99.28C205.171 90.0047 207.175 82.6189 211.183 77.1224C215.249 71.5687 221.462 67.933 229.823 66.2153L251.812 61.8353L253.615 73.3436L234.203 77.2083C228.935 78.2389 225.012 79.9565 222.436 82.3612C219.916 84.7659 218.427 88.1726 217.969 92.5812C219.973 90.4055 222.378 88.7451 225.184 87.6C227.99 86.3977 231.054 85.7965 234.375 85.7965ZM231.197 119.462C234.633 119.462 237.381 118.346 239.443 116.113C241.562 113.88 242.621 111.046 242.621 107.611C242.621 104.118 241.562 101.341 239.443 99.28C237.381 97.2189 234.633 96.1883 231.197 96.1883C227.704 96.1883 224.898 97.2189 222.779 99.28C220.66 101.341 219.601 104.118 219.601 107.611C219.601 111.103 220.689 113.966 222.865 116.199C225.041 118.375 227.818 119.462 231.197 119.462Z" fill="#111112"/>
<path d="M290.967 81.9318C295.262 81.9318 299.156 82.9338 302.649 84.9377C306.199 86.8843 308.976 89.6612 310.98 93.2683C312.985 96.8181 313.987 100.969 313.987 105.721C313.987 110.473 312.985 114.653 310.98 118.26C308.976 121.81 306.199 124.587 302.649 126.591C299.156 128.537 295.262 129.511 290.967 129.511C285.069 129.511 280.43 127.65 277.052 123.928V145.485H263.652V82.6189H276.451V87.9436C279.772 83.9357 284.611 81.9318 290.967 81.9318ZM288.648 118.518C292.084 118.518 294.889 117.373 297.065 115.082C299.299 112.735 300.415 109.615 300.415 105.721C300.415 101.828 299.299 98.7361 297.065 96.4459C294.889 94.0985 292.084 92.9247 288.648 92.9247C285.212 92.9247 282.377 94.0985 280.144 96.4459C277.968 98.7361 276.88 101.828 276.88 105.721C276.88 109.615 277.968 112.735 280.144 115.082C282.377 117.373 285.212 118.518 288.648 118.518Z" fill="#111112"/>
<path d="M343.306 129.511C338.438 129.511 334.058 128.509 330.164 126.505C326.327 124.444 323.321 121.609 321.145 118.002C318.969 114.395 317.881 110.302 317.881 105.721C317.881 101.141 318.969 97.0471 321.145 93.44C323.321 89.833 326.327 87.0275 330.164 85.0236C334.058 82.9624 338.438 81.9318 343.306 81.9318C348.173 81.9318 352.525 82.9624 356.362 85.0236C360.198 87.0275 363.205 89.833 365.381 93.44C367.557 97.0471 368.645 101.141 368.645 105.721C368.645 110.302 367.557 114.395 365.381 118.002C363.205 121.609 360.198 124.444 356.362 126.505C352.525 128.509 348.173 129.511 343.306 129.511ZM343.306 118.518C346.741 118.518 349.547 117.373 351.723 115.082C353.957 112.735 355.073 109.615 355.073 105.721C355.073 101.828 353.957 98.7361 351.723 96.4459C349.547 94.0985 346.741 92.9247 343.306 92.9247C339.87 92.9247 337.035 94.0985 334.802 96.4459C332.569 98.7361 331.452 101.828 331.452 105.721C331.452 109.615 332.569 112.735 334.802 115.082C337.035 117.373 339.87 118.518 343.306 118.518Z" fill="#111112"/>
<path d="M402.856 85.7965C407.265 85.7965 411.131 86.7126 414.452 88.5447C417.773 90.3196 420.321 92.8389 422.097 96.1024C423.929 99.3659 424.845 103.145 424.845 107.439C424.845 111.847 423.757 115.769 421.581 119.205C419.462 122.583 416.485 125.217 412.648 127.106C408.812 128.938 404.46 129.854 399.592 129.854C391.518 129.854 385.162 127.278 380.524 122.125C375.942 116.915 373.652 109.3 373.652 99.28C373.652 90.0047 375.656 82.6189 379.665 77.1224C383.73 71.5687 389.943 67.933 398.304 66.2153L420.293 61.8353L422.097 73.3436L402.684 77.2083C397.416 78.2389 393.494 79.9565 390.917 82.3612C388.397 84.7659 386.908 88.1726 386.45 92.5812C388.454 90.4055 390.86 88.7451 393.665 87.6C396.471 86.3977 399.535 85.7965 402.856 85.7965ZM399.678 119.462C403.114 119.462 405.862 118.346 407.924 116.113C410.043 113.88 411.102 111.046 411.102 107.611C411.102 104.118 410.043 101.341 407.924 99.28C405.862 97.2189 403.114 96.1883 399.678 96.1883C396.185 96.1883 393.379 97.2189 391.26 99.28C389.142 101.341 388.082 104.118 388.082 107.611C388.082 111.103 389.17 113.966 391.346 116.199C393.522 118.375 396.3 119.462 399.678 119.462Z" fill="#111112"/>
<path d="M456.528 97.3906C462.54 97.4479 467.093 98.7934 470.185 101.427C473.277 104.061 474.823 107.84 474.823 112.764C474.823 117.917 473.077 121.896 469.584 124.701C466.091 127.507 461.137 128.909 454.724 128.909L432.219 128.824V82.6189H445.533V97.3906H456.528ZM479.805 82.6189H493.119V128.824H479.805V82.6189ZM453.521 119.377C456.098 119.434 458.074 118.89 459.448 117.745C460.822 116.6 461.51 114.882 461.51 112.592C461.51 110.359 460.822 108.727 459.448 107.697C458.131 106.666 456.155 106.122 453.521 106.065L445.533 105.979V119.377H453.521Z" fill="#111112"/>
<path d="M543.142 93.6118H527.509V128.824H514.195V93.6118H498.562V82.6189H543.142V93.6118Z" fill="#111112"/>
</svg>
