<svg width="262" height="70" viewBox="0 0 262 70" fill="none" xmlns="http://www.w3.org/2000/svg">
<path d="M17.5271 18.2201H7.95903C7.52542 18.2201 7.1111 18.3941 6.80276 18.7034L0.375839 25.1505C-0.115575 25.6435 -0.115575 26.4554 0.375839 26.9484L3.70974 30.2928C4.20116 30.7857 5.01054 30.7857 5.50196 30.2928L7.31344 28.4756V35.261C7.31344 35.8893 7.82413 36.3919 8.4408 36.3919H24.6285C25.0621 36.3919 25.4187 36.0343 25.4187 35.5993V19.3897C25.4187 18.7421 24.8983 18.2201 24.2528 18.2201H17.5271Z" fill="#FFCB01"/>
<path d="M33.3872 16.8379H42.9939C43.3504 16.8379 43.6395 16.5479 43.6395 16.1903V4.15631C43.6395 3.53769 43.1384 3.0254 42.5121 3.0254H37.0198C36.4032 3.0254 35.8925 3.52803 35.8925 4.15631V9.07622L27.3554 0.502621C26.6905 -0.164322 25.6113 -0.164322 24.9465 0.502621L9.08634 16.4126C8.93217 16.5672 9.03816 16.8379 9.25978 16.8379H18.905H33.3872Z" fill="#FFCB01"/>
<path d="M51.9261 25.1505L45.4991 18.7034C45.1908 18.3941 44.7765 18.2201 44.3429 18.2201H34.7748H28.0106C27.365 18.2201 26.8447 18.7421 26.8447 19.3897V35.5993C26.8447 36.0343 27.2012 36.3919 27.6348 36.3919H43.8225C44.4489 36.3919 44.9499 35.8796 44.9499 35.261V28.4369L46.7999 30.2928C47.2914 30.7857 48.1007 30.7857 48.5922 30.2928L51.9261 26.9484C52.4271 26.4554 52.4271 25.6435 51.9261 25.1505Z" fill="#FFCB01"/>
<path d="M44.7668 61.842H26.4111C24.9657 61.842 23.7902 60.6628 23.7902 59.2129V44.5595C23.7902 44.3662 23.954 44.2019 24.1467 44.2019H28.1648C28.3575 44.2019 28.5213 44.3662 28.5213 44.5595V56.9028C28.5213 57.0091 28.608 57.1058 28.7236 57.1058H43.9671C54.1904 57.1058 62.5541 47.6332 62.5541 36.2759C62.5541 25.1795 56.0597 17.3115 46.2122 16.9152C45.8171 16.8959 45.5088 16.5769 45.5088 16.1806V12.1306C45.5088 11.715 45.846 11.3863 46.2603 11.396C54.2868 11.5507 60.3861 13.9575 64.5872 18.4231C69.0002 23.111 71.6115 28.6495 71.6115 36.2759C71.6115 43.9022 68.6052 49.9241 64.1921 54.583C59.885 59.1356 52.1862 61.842 44.7668 61.842Z" fill="white"/>
<path d="M22.9037 42.3074H24.8597C25.1681 42.3074 25.4186 42.0561 25.4186 41.7468V38.3154C25.4186 37.8804 25.0621 37.5228 24.6285 37.5228H8.44075C7.81443 37.5228 7.31339 38.0351 7.31339 38.6537V54.1674C7.31339 54.7956 7.82407 55.2983 8.44075 55.2983H20.5912C21.2175 55.2983 21.7185 54.786 21.7185 54.1674V43.5059C21.7185 42.8487 22.2485 42.3074 22.9037 42.3074Z" fill="#FFCB01"/>
<path d="M26.8447 38.325V41.7564C26.8447 42.0657 27.0952 42.317 27.4035 42.317H29.4174C30.0726 42.317 30.6026 42.8487 30.6026 43.5059V54.1867C30.6026 54.815 31.1132 55.3176 31.7299 55.3176H43.8129C44.4392 55.3176 44.9403 54.8053 44.9403 54.1867V38.673C44.9403 38.0447 44.4296 37.5421 43.8129 37.5421H27.6252C27.1916 37.5324 26.8447 37.8901 26.8447 38.325Z" fill="#FFCB01"/>
<path d="M44.9499 54.177V44.8495L41.3558 41.2441L33.8979 41.8917L37.887 45.8934L33.1078 46.6473L41.7509 55.3176H43.8129C44.4488 55.3176 44.9499 54.8053 44.9499 54.177Z" fill="#F4990A"/>
<path d="M41.0379 41.1088H34.2448C33.9943 41.1088 33.7919 41.3118 33.7919 41.5631C33.7919 41.8144 33.9943 42.0174 34.2448 42.0174H37.1836V42.9743H37.1451C36.8367 42.9743 36.5959 43.2256 36.5959 43.5252V43.8056H33.3198C33.1849 43.8056 33.0692 43.9119 33.0692 44.0569V46.483C33.0692 46.6183 33.1752 46.7343 33.3198 46.7343H37.3378C38.4844 46.7343 39.4191 47.6719 39.4191 48.8222V49.3441C39.4191 49.4698 39.5251 49.5761 39.6503 49.5761H42.117C42.2423 49.5761 42.3386 49.4794 42.3483 49.3538V48.8318C42.3483 46.53 40.8025 44.5875 38.6964 43.9929V43.5252C38.6964 43.2159 38.4459 42.9743 38.1472 42.9743H38.099V42.0174H41.0379C41.2884 42.0174 41.4907 41.8144 41.4907 41.5631C41.4907 41.3215 41.2884 41.1088 41.0379 41.1088Z" fill="white"/>
<path d="M40.8837 51.8476C41.2306 51.8476 41.51 51.5673 41.51 51.2193C41.51 50.5717 40.8837 50.0207 40.8837 50.0207C40.8837 50.0207 40.2574 50.562 40.2574 51.2193C40.2574 51.5673 40.5368 51.8476 40.8837 51.8476Z" fill="white"/>
<path d="M43.9189 36.3919C44.4199 36.3919 44.8535 36.0632 44.9981 35.5993L43.2348 36.3919H43.9189Z" fill="#F4990A"/>
<path d="M31.7299 27.7796C31.5565 27.7796 31.4119 27.9246 31.4119 28.0986V31.6266C31.4119 31.7136 31.4505 31.8006 31.5083 31.8586L36.037 36.4015H41.0379L32.4526 27.7893H31.7299V27.7796Z" fill="#F4990A"/>
<path d="M40.6621 22.879C40.585 22.8017 40.479 22.763 40.373 22.763H31.7299C31.5565 22.763 31.4119 22.908 31.4119 23.082V26.61C31.4119 26.697 31.4505 26.784 31.5083 26.842L32.4526 27.7893L41.0379 36.4015H43.2348L44.9981 35.6089C45.0366 35.5026 45.0559 35.3866 45.0559 35.2609V28.4369L46.9059 30.2927C47.2913 30.6793 47.8502 30.7663 48.3223 30.5537L40.6621 22.879Z" fill="#F4990A"/>
<path d="M31.6432 22.7534H35.1505C35.324 22.7534 35.4781 22.908 35.4781 23.082V26.6004C35.4781 26.784 35.3336 26.929 35.1505 26.929H31.6432C31.4601 26.929 31.3156 26.784 31.3156 26.6004V23.082C31.3156 22.8984 31.4601 22.7534 31.6432 22.7534Z" fill="white"/>
<path d="M36.7982 22.7534H40.3055C40.479 22.7534 40.6332 22.908 40.6332 23.082V26.6004C40.6332 26.784 40.4886 26.929 40.3055 26.929H36.7982C36.6151 26.929 36.4706 26.784 36.4706 26.6004V23.082C36.4706 22.8984 36.6151 22.7534 36.7982 22.7534Z" fill="white"/>
<path d="M35.1505 27.7796H31.6432C31.4601 27.7796 31.3156 27.9246 31.3156 28.1083V31.6266C31.3156 31.8103 31.4601 31.9553 31.6432 31.9553H35.1505C35.3336 31.9553 35.4781 31.8103 35.4781 31.6266V28.1083C35.4781 27.9246 35.324 27.7796 35.1505 27.7796Z" fill="white"/>
<path d="M36.7982 27.7796H40.3055C40.479 27.7796 40.6332 27.9246 40.6332 28.1083V31.6266C40.6332 31.8103 40.4886 31.9553 40.3055 31.9553H36.7982C36.6151 31.9553 36.4706 31.8103 36.4706 31.6266V28.1083C36.4706 27.9246 36.6151 27.7796 36.7982 27.7796Z" fill="white"/>
<path d="M21.7185 54.177V46.9276L17.9607 43.158L17.2187 43.2353L17.5078 42.9453L16.0143 41.4471L15.2531 42.1044L16.4575 43.3126L16.2744 43.129L16.0528 43.3513L14.5593 43.5156L15.1374 42.9356L13.6439 41.4374L12.8827 42.0947L14.3281 43.5446L10.9652 43.9216L13.2296 46.193L11.9384 47.4883L15.0507 50.6103L14.1161 51.5479L17.8643 55.308H20.5912C21.2175 55.3176 21.7185 54.8053 21.7185 54.177Z" fill="#F4990A"/>
<path d="M17.5375 44.0955H11.3515C11.0432 44.0955 10.7926 43.8442 10.8023 43.5349C10.8023 43.2256 11.0528 42.9743 11.3611 42.9743H12.7101V41.8724C12.7101 41.5631 12.9606 41.3118 13.269 41.3118C13.5773 41.3118 13.8278 41.5631 13.8278 41.8724V42.9743H15.0708V41.8724C15.0708 41.5631 15.3213 41.3118 15.6297 41.3118C15.938 41.3118 16.1885 41.5631 16.1885 41.8724V42.9743H17.5375C17.8459 42.9743 18.0964 43.2256 18.0964 43.5349C18.0964 43.8442 17.8459 44.0955 17.5375 44.0955Z" fill="white"/>
<path d="M10.9845 44.8495H17.9029C18.0089 44.8495 18.0956 44.9365 18.0859 45.0428C17.9992 46.7827 16.6888 48.2035 15.0026 48.4645V51.0936C15.0026 51.4029 14.752 51.6542 14.4437 51.6542C14.1354 51.6542 13.8848 51.4029 13.8848 51.0936V48.4645C12.1986 48.2035 10.8882 46.7827 10.8015 45.0428C10.7918 44.9365 10.8785 44.8495 10.9845 44.8495Z" fill="white"/>
<path d="M19.5891 22.937V24.5029L12.2468 25.6531L14.1161 27.5283C14.1643 27.5283 14.2221 27.5283 14.2703 27.5283C14.6268 27.5573 14.9736 27.625 15.3205 27.654C15.6481 27.683 15.6481 28.1953 15.3205 28.1663C15.2145 28.1566 15.1182 28.1469 15.0218 28.1276C14.9833 28.1759 14.9158 28.2146 14.8388 28.2243C14.8291 28.2243 14.8291 28.2243 14.8195 28.2243L15.0507 28.4562L11.8325 31.8296L16.3708 36.3822H24.6285C25.0621 36.3822 25.4186 36.0246 25.4186 35.5896V28.7752L19.5891 22.937Z" fill="#F4990A"/>
<path d="M19.7433 24.1356H20.3118C20.6779 24.1356 20.9767 24.4352 20.9574 24.8122V25.7595C20.9574 26.0108 20.8225 26.2331 20.6009 26.3491L19.0592 27.1513C18.9725 27.1997 18.9146 27.2867 18.9146 27.393V28.0696H20.2636C20.3985 28.0696 20.5141 28.1952 20.5141 28.3499C20.5141 28.5046 20.4082 28.6302 20.2636 28.6302H20.042L19.7337 29.4228V31.2013C19.7337 31.8199 19.2712 32.3226 18.7027 32.3226C18.1342 32.3226 17.6717 31.8199 17.6717 31.2013V29.4228L17.3633 28.6302H17.1417C17.0068 28.6302 16.8912 28.5046 16.8912 28.3499C16.8912 28.1952 16.9972 28.0696 17.1417 28.0696H18.4907V27.393C18.4907 27.1223 18.6448 26.8904 18.8761 26.7647L20.4178 25.9624C20.4949 25.9141 20.543 25.8368 20.543 25.7498V24.8025C20.543 24.6769 20.4371 24.5706 20.3118 24.5706H19.7433V25.1022C19.7433 25.5758 19.3579 25.9528 18.8954 25.9528H12.7286C12.2565 25.9528 11.8807 25.5661 11.8807 25.1022V23.604C11.8807 23.1303 12.2661 22.7534 12.7286 22.7534H18.8954C19.3675 22.7534 19.7433 23.14 19.7433 23.604V24.1356Z" fill="white"/>
<path fill-rule="evenodd" clip-rule="evenodd" d="M11.659 27.9343C11.659 27.6346 12.5648 27.3833 13.6825 27.3833C14.7906 27.3833 15.6867 27.625 15.706 27.9149V31.7426C15.706 32.0422 14.8002 32.2936 13.6825 32.2936C12.5648 32.2936 11.659 32.0519 11.659 31.7426V27.9343ZM12.0156 27.9343C12.2275 28.0503 12.8057 28.2049 13.6825 28.2049C14.569 28.2049 15.1471 28.0503 15.3495 27.9343C15.1375 27.8183 14.5594 27.6636 13.6825 27.6636C12.8057 27.6636 12.2275 27.8183 12.0156 27.9343Z" fill="white"/>
<path d="M33.3872 16.8379H40.0069L28.5116 5.29687L25.4957 4.98757L23.6071 6.62109L20.2058 14.2861L18.3557 14.6921L20.4948 16.8379H33.3872Z" fill="#F4990A"/>
<path d="M24.6092 5.04557C25.1874 4.67827 25.8426 4.48495 26.5171 4.48495C28.0684 4.48495 29.3307 5.75118 29.3307 7.30738V8.50594C29.3307 9.26955 28.7044 9.89783 27.9432 9.89783H27.683C27.6734 10.439 27.6734 11.096 27.6734 11.7531C27.6734 11.9078 27.5192 12.034 27.365 11.9953C27.2205 11.9566 27.0663 11.947 26.9122 11.947C25.9679 11.976 25.2067 12.7396 25.1777 13.6868C25.1681 14.0348 25.2548 14.3538 25.409 14.6244C25.4668 14.7211 25.3994 14.8467 25.2837 14.8467H23.665C23.3277 14.8467 23.0676 14.5374 23.1254 14.1991L23.5975 11.454C23.8866 9.8205 25.2934 8.62193 26.9507 8.62193H27.1145C27.4132 8.62193 27.6541 8.84425 27.683 9.12456H27.9432C28.2804 9.12456 28.5598 8.85391 28.5598 8.50594V7.31705C28.5598 6.17648 27.6348 5.25822 26.5075 5.25822C25.4379 5.25822 24.4454 5.8865 23.9926 6.86275L23.8095 7.28805L24.0986 7.43304C24.2913 7.52003 24.3684 7.75201 24.272 7.94533C24.2046 8.08065 24.0697 8.15797 23.9251 8.15797C23.8673 8.15797 23.8095 8.14831 23.7517 8.11931L23.4819 7.98399L21.3139 12.6429L21.6222 12.7976C21.8149 12.8846 21.892 13.1166 21.7957 13.3099C21.7282 13.4452 21.5933 13.5225 21.4488 13.5225C21.391 13.5225 21.3332 13.5129 21.2753 13.4839L20.9863 13.3389L20.6683 14.0155H20.7647C20.9766 14.0155 21.1501 14.1895 21.1501 14.4021C21.1501 14.6148 20.9766 14.7887 20.7647 14.7887H18.6159C18.4039 14.7887 18.2305 14.6148 18.2305 14.4021C18.2305 14.1895 18.4039 14.0155 18.6159 14.0155H19.83L20.3021 12.9909L19.9842 12.8362C19.7915 12.7492 19.7144 12.5173 19.8107 12.324C19.8975 12.1306 20.1287 12.0533 20.3214 12.15L20.6201 12.3046L22.7881 7.65535L22.4509 7.49103C22.2582 7.40404 22.1907 7.17206 22.2774 6.97874C22.3642 6.78542 22.5954 6.7081 22.7881 6.80476L23.1061 6.95941L23.2988 6.54378C23.5879 5.92516 24.0408 5.41287 24.6092 5.04557Z" fill="white"/>
<path fill-rule="evenodd" clip-rule="evenodd" d="M25.5728 13.7255C25.5728 12.9426 26.1991 12.3143 26.9796 12.3143C27.7504 12.3143 28.3767 12.9522 28.3864 13.7255C28.3864 14.5084 27.7601 15.1367 26.9796 15.1367C26.1991 15.1367 25.5728 14.5084 25.5728 13.7255ZM26.3822 13.7255C26.3822 14.0541 26.652 14.3248 26.9796 14.3248C27.3072 14.3248 27.577 14.0541 27.577 13.7255C27.577 13.3969 27.3072 13.1262 26.9796 13.1262C26.652 13.1262 26.3822 13.3969 26.3822 13.7255Z" fill="white"/>
<path d="M84.1985 62.0941C81.8543 62.0941 79.7445 61.6137 77.8692 60.6529C76.0214 59.6647 74.5735 58.3059 73.5255 56.5765C72.4775 54.8471 71.9535 52.8843 71.9535 50.6882C71.9535 48.4921 72.4775 46.5294 73.5255 44.8C74.5735 43.0706 76.0214 41.7255 77.8692 40.7647C79.7445 39.7765 81.8543 39.2823 84.1985 39.2823C86.5427 39.2823 88.6387 39.7765 90.4865 40.7647C92.3343 41.7255 93.7822 43.0706 94.8302 44.8C95.8782 46.5294 96.4022 48.4921 96.4022 50.6882C96.4022 52.8843 95.8782 54.8471 94.8302 56.5765C93.7822 58.3059 92.3343 59.6647 90.4865 60.6529C88.6387 61.6137 86.5427 62.0941 84.1985 62.0941ZM84.1985 56.8235C85.8533 56.8235 87.2046 56.2745 88.2526 55.1765C89.3282 54.051 89.866 52.5549 89.866 50.6882C89.866 48.8216 89.3282 47.3392 88.2526 46.2412C87.2046 45.1157 85.8533 44.5529 84.1985 44.5529C82.5438 44.5529 81.1786 45.1157 80.1031 46.2412C79.0275 47.3392 78.4897 48.8216 78.4897 50.6882C78.4897 52.5549 79.0275 54.051 80.1031 55.1765C81.1786 56.2745 82.5438 56.8235 84.1985 56.8235Z" fill="white"/>
<path d="M112.879 41.1353C115.003 41.1353 116.864 41.5745 118.464 42.4529C120.063 43.3039 121.291 44.5118 122.146 46.0765C123.028 47.6412 123.469 49.4529 123.469 51.5118C123.469 53.6255 122.945 55.5059 121.897 57.1529C120.877 58.7725 119.443 60.0353 117.595 60.9412C115.747 61.8196 113.651 62.2588 111.307 62.2588C107.419 62.2588 104.357 61.0235 102.123 58.5529C99.917 56.0549 98.8139 52.4039 98.8139 47.6C98.8139 43.1529 99.7791 39.6118 101.71 36.9765C103.668 34.3137 106.66 32.5706 110.687 31.747L121.277 29.647L122.146 35.1647L112.796 37.0176C110.259 37.5118 108.37 38.3353 107.129 39.4882C105.915 40.6412 105.198 42.2745 104.978 44.3882C105.943 43.3451 107.101 42.549 108.453 42C109.804 41.4235 111.28 41.1353 112.879 41.1353ZM111.348 57.2765C113.003 57.2765 114.327 56.7412 115.32 55.6706C116.34 54.6 116.851 53.2412 116.851 51.5941C116.851 49.9196 116.34 48.5882 115.32 47.6C114.327 46.6118 113.003 46.1176 111.348 46.1176C109.666 46.1176 108.315 46.6118 107.294 47.6C106.274 48.5882 105.764 49.9196 105.764 51.5941C105.764 53.2686 106.288 54.6412 107.336 55.7118C108.384 56.7549 109.721 57.2765 111.348 57.2765Z" fill="white"/>
<path d="M140.135 39.2823C142.203 39.2823 144.079 39.7627 145.761 40.7235C147.471 41.6569 148.808 42.9882 149.774 44.7176C150.739 46.4196 151.222 48.4098 151.222 50.6882C151.222 52.9667 150.739 54.9706 149.774 56.7C148.808 58.402 147.471 59.7333 145.761 60.6941C144.079 61.6274 142.203 62.0941 140.135 62.0941C137.294 62.0941 135.06 61.202 133.433 59.4176V69.7529H126.98V39.6118H133.144V42.1647C134.743 40.2431 137.074 39.2823 140.135 39.2823ZM139.018 56.8235C140.673 56.8235 142.024 56.2745 143.072 55.1765C144.148 54.051 144.685 52.5549 144.685 50.6882C144.685 48.8216 144.148 47.3392 143.072 46.2412C142.024 45.1157 140.673 44.5529 139.018 44.5529C137.363 44.5529 135.998 45.1157 134.922 46.2412C133.874 47.3392 133.35 48.8216 133.35 50.6882C133.35 52.5549 133.874 54.051 134.922 55.1765C135.998 56.2745 137.363 56.8235 139.018 56.8235Z" fill="white"/>
<path d="M165.342 62.0941C162.998 62.0941 160.888 61.6137 159.013 60.6529C157.165 59.6647 155.717 58.3059 154.669 56.5765C153.621 54.8471 153.097 52.8843 153.097 50.6882C153.097 48.4921 153.621 46.5294 154.669 44.8C155.717 43.0706 157.165 41.7255 159.013 40.7647C160.888 39.7765 162.998 39.2823 165.342 39.2823C167.686 39.2823 169.782 39.7765 171.63 40.7647C173.478 41.7255 174.926 43.0706 175.974 44.8C177.022 46.5294 177.546 48.4921 177.546 50.6882C177.546 52.8843 177.022 54.8471 175.974 56.5765C174.926 58.3059 173.478 59.6647 171.63 60.6529C169.782 61.6137 167.686 62.0941 165.342 62.0941ZM165.342 56.8235C166.997 56.8235 168.348 56.2745 169.396 55.1765C170.472 54.051 171.01 52.5549 171.01 50.6882C171.01 48.8216 170.472 47.3392 169.396 46.2412C168.348 45.1157 166.997 44.5529 165.342 44.5529C163.687 44.5529 162.322 45.1157 161.247 46.2412C160.171 47.3392 159.633 48.8216 159.633 50.6882C159.633 52.5549 160.171 54.051 161.247 55.1765C162.322 56.2745 163.687 56.8235 165.342 56.8235Z" fill="white"/>
<path d="M194.023 41.1353C196.146 41.1353 198.008 41.5745 199.607 42.4529C201.207 43.3039 202.434 44.5118 203.289 46.0765C204.172 47.6412 204.613 49.4529 204.613 51.5118C204.613 53.6255 204.089 55.5059 203.041 57.1529C202.021 58.7725 200.586 60.0353 198.739 60.9412C196.891 61.8196 194.795 62.2588 192.451 62.2588C188.562 62.2588 185.501 61.0235 183.267 58.5529C181.061 56.0549 179.957 52.4039 179.957 47.6C179.957 43.1529 180.923 39.6118 182.853 36.9765C184.811 34.3137 187.804 32.5706 191.83 31.747L202.42 29.647L203.289 35.1647L193.94 37.0176C191.403 37.5118 189.513 38.3353 188.272 39.4882C187.059 40.6412 186.342 42.2745 186.121 44.3882C187.087 43.3451 188.245 42.549 189.596 42C190.948 41.4235 192.423 41.1353 194.023 41.1353ZM192.492 57.2765C194.147 57.2765 195.471 56.7412 196.463 55.6706C197.484 54.6 197.994 53.2412 197.994 51.5941C197.994 49.9196 197.484 48.5882 196.463 47.6C195.471 46.6118 194.147 46.1176 192.492 46.1176C190.81 46.1176 189.458 46.6118 188.438 47.6C187.417 48.5882 186.907 49.9196 186.907 51.5941C186.907 53.2686 187.431 54.6412 188.479 55.7118C189.527 56.7549 190.865 57.2765 192.492 57.2765Z" fill="white"/>
<path d="M219.872 46.6941C222.768 46.7216 224.96 47.3667 226.449 48.6294C227.939 49.8922 228.683 51.7039 228.683 54.0647C228.683 56.5353 227.842 58.4431 226.16 59.7882C224.477 61.1333 222.092 61.8059 219.003 61.8059L208.164 61.7647V39.6118H214.577V46.6941H219.872ZM231.083 39.6118H237.495V61.7647H231.083V39.6118ZM218.424 57.2353C219.665 57.2627 220.616 57.002 221.278 56.4529C221.94 55.9039 222.271 55.0804 222.271 53.9823C222.271 52.9118 221.94 52.1294 221.278 51.6353C220.644 51.1412 219.693 50.8804 218.424 50.8529L214.577 50.8118V57.2353H218.424Z" fill="white"/>
<path d="M261.587 44.8823H254.058V61.7647H247.646V44.8823H240.116V39.6118H261.587V44.8823Z" fill="white"/>
</svg>
